<?xml version="1.0" standalone="no"?>
<!DOCTYPE svg PUBLIC "-//W3C//DTD SVG 20010904//EN"
 "http://www.w3.org/TR/2001/REC-SVG-20010904/DTD/svg10.dtd">
<svg version="1.0" xmlns="http://www.w3.org/2000/svg"
 width="500.000000pt" height="500.000000pt" viewBox="0 0 500.000000 500.000000"
 preserveAspectRatio="xMidYMid meet">

<g transform="translate(0.000000,500.000000) scale(0.100000,-0.100000)"
fill="#000000" stroke="none">
<path d="M2230 4124 c-84 -10 -240 -48 -333 -80 -449 -157 -809 -529 -956
-988 -52 -162 -63 -230 -68 -426 -6 -214 3 -298 53 -475 92 -326 311 -636 589
-834 181 -129 350 -205 571 -257 110 -26 134 -29 329 -29 181 0 224 3 308 22
361 82 658 258 879 522 253 303 379 666 365 1051 -10 284 -83 530 -229 768
-215 352 -590 615 -1003 704 -66 14 -140 20 -280 23 -104 2 -206 1 -225 -1z
m509 -338 c411 -115 727 -414 860 -812 81 -242 82 -528 3 -774 -117 -368 -421
-675 -787 -798 -134 -45 -221 -57 -410 -56 -167 1 -188 3 -297 32 -387 101
-701 378 -846 747 -61 153 -74 223 -81 429 l-6 189 -69 -104 c-87 -132 -105
-152 -123 -138 -7 6 -13 16 -13 20 0 14 199 312 218 327 9 6 29 12 45 12 28 0
29 -1 22 -37 -53 -278 -18 -539 104 -780 104 -208 312 -413 531 -523 162 -82
332 -120 537 -120 324 0 603 117 833 351 142 143 256 344 306 536 32 121 43
345 24 474 -57 393 -335 753 -703 912 -355 152 -779 119 -1102 -88 -136 -87
-303 -254 -369 -367 -17 -32 -26 -38 -53 -38 -18 0 -33 3 -33 6 0 25 131 196
209 275 151 150 330 257 526 314 139 40 176 44 385 41 174 -3 205 -6 289 -30z
m-124 -225 c50 -10 118 -29 152 -42 l62 -24 -132 -1 c-152 -1 -241 -21 -360
-80 -219 -111 -388 -321 -442 -551 -25 -103 -17 -329 15 -428 87 -273 286
-470 560 -557 65 -20 95 -23 225 -23 127 1 163 4 230 24 102 29 212 87 299
158 62 49 66 52 50 23 -45 -75 -147 -191 -225 -253 -175 -141 -359 -211 -584
-223 -467 -26 -892 286 -1016 746 -20 73 -23 108 -23 255 0 143 4 182 22 249
25 89 94 241 143 313 47 69 163 186 240 244 114 84 304 162 444 182 85 12 255
6 340 -12z m315 -636 c0 -21 -5 -25 -28 -25 -45 0 -52 -15 -52 -117 0 -86 -2
-96 -24 -118 l-25 -25 21 -14 c23 -16 36 -75 37 -162 1 -57 13 -74 53 -74 23
0 28 -4 28 -25 0 -21 -5 -25 -30 -25 -81 0 -110 46 -110 176 0 78 -7 90 -55
96 -22 2 -31 9 -33 24 -3 18 4 23 33 28 46 9 54 30 48 123 -9 113 24 161 110
163 22 0 27 -4 27 -25z m-280 -5 c0 -16 -7 -20 -35 -20 -20 0 -38 -6 -40 -12
-3 -7 -1 -123 3 -258 l7 -245 43 -3 c33 -2 42 -7 42 -21 0 -20 -35 -31 -100
-31 l-37 0 -6 203 c-4 111 -7 248 -7 305 l0 102 65 0 c58 0 65 -2 65 -20z"/>
</g>
</svg>
